{"title":"The Investigation Ep4 The Lost Patients XviD","uid":6423830,"size":183257637,"categoryP":"video","categoryS":"tv_shows","magnet":"?xt=urn:btih:a1c621e91904a668fac0dfcade3845e730f6e991&amp;dn=The+Investigation+Ep4+The+Lost+Patients+XviD&amp;tr=udp%3A%2F%2Ftracker.openbittorrent.com%3A80&amp;tr=udp%3A%2F%2Fopen.demonii.com%3A1337&amp;tr=udp%3A%2F%2Ftracker.coppersurfer.tk%3A6969&amp;tr=udp%3A%2F%2Fexodus.desync.com%3A6969","seeders":0,"leechers":1,"uploader":"trialNerror","files":2,"time":1306392167,"description":"The independant ghost hunting group, Southern Tablelands Paranormal Research Society, sets out to capture and document paranormal activity in and around New South Wales.\n\nShot in New South Wales, Australia.\nAll rights reserved Ã‚Â© 2011.\n\nYou are free to distribute and copy this documentary so long as this nfo file accompanies it.\n\n\n\normat                           : AVI\nFormat/Info                      : Audio Video Interleave\nFile size                        : 175 MiB\nDuration                         : 17mn 54s\nOverall bit rate                 : 1 365 Kbps\nWriting application              : VirtualDubMod 1.5.4.1 (build 2178/release)\nWriting library                  : VirtualDubMod build 2178/release\n\nVideo\nID                               : 0\nFormat                           : MPEG-4 Visual\nFormat profile                   : Advanced Simple@L5\nFormat settings, BVOP            : Yes\nFormat settings, QPel            : No\nFormat settings, GMC             : No warppoints\nFormat settings, Matrix          : Custom\nCodec ID                         : XVID\nCodec ID/Hint                    : XviD\nDuration                         : 17mn 54s\nBit rate                         : 1 233 Kbps\nWidth                            : 640 pixels\nHeight                           : 480 pixels\nDisplay aspect ratio             : 4:3\nFrame rate                       : 30.000 fps\nColor space                      : YUV\nChroma subsampling               : 4:2:0\nBit depth                        : 8 bits\nScan type                        : Progressive\nBits/(Pixel*Frame)               : 0.134\nStream size                      : 158 MiB (90%)\nWriting library                  : XviD 1.2.0.dev47 (UTC 2006-11-01)\n\nAudio\nID                               : 1\nFormat                           : MPEG Audio\nFormat version                   : Version 1\nFormat profile                   : Layer 3\nMode                             : Joint stereo\nCodec ID                         : 55\nCodec ID/Hint                    : MP3\nDuration                         : 17mn 54s\nBit rate mode                    : Variable\nBit rate                         : 118 Kbps\nNominal bit rate                 : 128 Kbps\nChannel(s)                       : 2 channels\nSampling rate                    : 44.1 KHz\nStream size                      : 15.1 MiB (9%)\nAlignment                        : Aligned on interleaves\nInterleave, duration             : 26 ms (0.78 video frame)\nInterleave, preload duration     : 571 ms\nWriting library                  : LAME3.98r\nEncoding settings                : -m j -V 4 -q 2 -lowpass 17 --abr 128","torrent":{"xt":"urn:btih:a1c621e91904a668fac0dfcade3845e730f6e991","amp;dn":"The+Investigation+Ep4+The+Lost+Patients+XviD","amp;tr":["udp%3A%2F%2Ftracker.openbittorrent.com%3A80","udp%3A%2F%2Fopen.demonii.com%3A1337","udp%3A%2F%2Ftracker.coppersurfer.tk%3A6969","udp%3A%2F%2Fexodus.desync.com%3A6969"],"infoHash":"a1c621e91904a668fac0dfcade3845e730f6e991","infoHashBuffer":{"type":"Buffer","data":[161,198,33,233,25,4,166,104,250,192,223,202,222,56,69,231,48,246,233,145]},"announce":[],"urlList":[]}}